<svg width="26" height="26" viewBox="0 0 26 26" fill="none" xmlns="http://www.w3.org/2000/svg">
<g clip-path="url(#clip0_28_2053)">
<path fill-rule="evenodd" clip-rule="evenodd" d="M22.4796 4.81708H20.0711L19.2682 3.2114C18.7953 2.27769 18.5489 1.60571 17.6625 1.60571H8.02842C7.14208 1.60571 6.84824 2.37162 6.42274 3.2114L5.6199 4.81708H3.21137C1.43789 4.81708 0 6.25497 0 8.02845V20.8739C0 22.6474 1.43789 24.0853 3.21137 24.0853H22.4796C24.2531 24.0853 25.691 22.6474 25.691 20.8739V8.02845C25.691 6.25497 24.2531 4.81708 22.4796 4.81708ZM12.8455 20.8739C9.29852 20.8739 6.42274 17.9981 6.42274 14.4512C6.42274 10.9042 9.29852 8.02845 12.8455 8.02845C16.3924 8.02845 19.2682 10.9042 19.2682 14.4512C19.2682 17.9981 16.3924 20.8739 12.8455 20.8739ZM12.8455 9.63414C10.1857 9.63414 8.02842 11.7914 8.02842 14.4512C8.02842 17.111 10.1857 19.2682 12.8455 19.2682C15.5053 19.2682 17.6625 17.111 17.6625 14.4512C17.6625 11.7914 15.5053 9.63414 12.8455 9.63414Z" fill="white"/>
</g>
<defs>
<clipPath id="clip0_28_2053">
<rect width="25.691" height="25.691" fill="white"/>
</clipPath>
</defs>
</svg>
