<svg width="19" height="19" viewBox="0 0 19 19" fill="none" xmlns="http://www.w3.org/2000/svg">
<path fill-rule="evenodd" clip-rule="evenodd" d="M6.13525 3.06784C6.13525 2.64428 6.45221 2.3009 6.8432 2.3009H11.5628C11.9538 2.3009 12.2707 2.64428 12.2707 3.06784C12.2707 3.4914 11.9538 3.83478 11.5628 3.83478H6.8432C6.45221 3.83478 6.13525 3.4914 6.13525 3.06784Z" fill="#1567FF"/>
<path fill-rule="evenodd" clip-rule="evenodd" d="M7.49827 16.1056H10.9069C13.3005 16.1056 14.4974 16.1056 15.3571 15.5517C15.7292 15.3118 16.0488 15.0037 16.2975 14.6448C16.8719 13.8158 16.8719 12.6617 16.8719 10.3535C16.8719 8.04534 16.8718 6.89141 16.2974 6.06237C16.0487 5.70347 15.7291 5.39532 15.3569 5.15551C14.4972 4.60156 13.3004 4.60156 10.9068 4.60156H7.49814C5.10451 4.60156 3.90769 4.60156 3.04797 5.15551C2.67578 5.39532 2.35622 5.70347 2.10753 6.06237C1.5332 6.89123 1.5332 8.0448 1.5332 10.352V10.3535C1.5332 12.6617 1.5332 13.8158 2.10765 14.6448C2.35634 15.0037 2.6759 15.3118 3.04809 15.5517C3.90782 16.1056 5.10464 16.1056 7.49827 16.1056ZM6.007 10.3535C6.007 8.6516 7.43771 7.27201 9.20257 7.27201C10.9674 7.27201 12.3982 8.6516 12.3982 10.3535C12.3982 12.0553 10.9674 13.435 9.20257 13.435C7.43771 13.435 6.007 12.0553 6.007 10.3535ZM7.28523 10.3535C7.28523 9.33241 8.14366 8.50458 9.20257 8.50458C10.2615 8.50458 11.1199 9.33241 11.1199 10.3535C11.1199 11.3746 10.2615 12.2024 9.20257 12.2024C8.14366 12.2024 7.28523 11.3746 7.28523 10.3535ZM13.8894 7.27201C13.5365 7.27201 13.2503 7.54793 13.2503 7.88827C13.2503 8.22871 13.5365 8.50458 13.8894 8.50458H14.3155C14.6685 8.50458 14.9546 8.22871 14.9546 7.88827C14.9546 7.54793 14.6685 7.27201 14.3155 7.27201H13.8894Z" fill="#1567FF"/>
</svg>
