<svg width="45" height="45" viewBox="0 0 45 45" fill="none" xmlns="http://www.w3.org/2000/svg">
<path d="M11.0851 33.254H40.1825C40.55 33.254 40.9024 33.3999 41.1623 33.6598C41.4221 33.9196 41.5681 34.2721 41.5681 34.6396C41.5681 35.007 41.4221 35.3595 41.1623 35.6193C40.9024 35.8792 40.55 36.0251 40.1825 36.0251H9.69955C9.33207 36.0251 8.97964 35.8792 8.71979 35.6193C8.45995 35.3595 8.31396 35.007 8.31396 34.6396V4.15659C8.31396 3.7891 8.45995 3.43667 8.71979 3.17683C8.97964 2.91698 9.33207 2.771 9.69955 2.771C10.067 2.771 10.4195 2.91698 10.6793 3.17683C10.9392 3.43667 11.0851 3.7891 11.0851 4.15659V33.254Z" fill="#1B8843"/>
<path d="M36.0254 9.69931V40.1823C36.0254 40.5498 35.8794 40.9022 35.6196 41.162C35.3597 41.4219 35.0073 41.5679 34.6398 41.5679C34.2723 41.5679 33.9199 41.4219 33.66 41.162C33.4002 40.9022 33.2542 40.5498 33.2542 40.1823V11.0849H4.15683C3.78935 11.0849 3.43692 10.9389 3.17707 10.6791C2.91722 10.4192 2.77124 10.0668 2.77124 9.69931C2.77124 9.33183 2.91722 8.9794 3.17707 8.71955C3.43692 8.4597 3.78935 8.31372 4.15683 8.31372H34.6398C35.0073 8.31372 35.3597 8.4597 35.6196 8.71955C35.8794 8.9794 36.0254 9.33183 36.0254 9.69931Z" fill="#1B8843"/>
</svg>
