<svg width="22" height="22" viewBox="0 0 22 22" fill="none" xmlns="http://www.w3.org/2000/svg">
<path d="M0.73877 10.7865C0.73877 8.53308 0.73877 7.40635 1.25004 6.47231C1.7613 5.53827 2.69536 4.95857 4.56345 3.79918L6.53289 2.57688C8.50761 1.35132 9.495 0.738541 10.586 0.738541C11.6769 0.738541 12.6643 1.35132 14.6391 2.57688L16.6085 3.79917C18.4766 4.95857 19.4106 5.53827 19.9219 6.47231C20.4332 7.40635 20.4332 8.53308 20.4332 10.7865V12.2844C20.4332 16.1256 20.4332 18.0463 19.2795 19.2396C18.1259 20.4329 16.269 20.4329 12.5554 20.4329H8.61653C4.90291 20.4329 3.04612 20.4329 1.89244 19.2396C0.73877 18.0463 0.73877 16.1256 0.73877 12.2844V10.7865Z" fill="white" stroke="white" stroke-width="1.47708"/>
<path d="M13.5402 16.4941H7.63184" stroke="#1762EF" stroke-width="1.47708" stroke-linecap="round"/>
</svg>
