<svg width="42" height="42" viewBox="0 0 42 42" fill="none" xmlns="http://www.w3.org/2000/svg">
<g clip-path="url(#clip0_28_1906)">
<path d="M10.7954 14.4659V10.7954H30.3716V14.4659" stroke="#2D2EF5" stroke-width="2.44702" stroke-linecap="round" stroke-linejoin="round"/>
<path d="M16.9136 30.3713H24.2546" stroke="#2D2EF5" stroke-width="2.44702" stroke-linecap="round" stroke-linejoin="round"/>
<path d="M20.584 10.7954V30.3716" stroke="#2D2EF5" stroke-width="2.44702" stroke-linecap="round" stroke-linejoin="round"/>
<mask id="path-4-inside-1_28_1906" fill="white">
<path d="M0.894043 1.81592C0.894043 1.26363 1.34176 0.815918 1.89404 0.815918H7.98486C8.53715 0.815918 8.98486 1.26363 8.98486 1.81592V7.90674C8.98486 8.45902 8.53715 8.90674 7.98486 8.90674H1.89404C1.34176 8.90674 0.894043 8.45902 0.894043 7.90674V1.81592Z"/>
</mask>
<path d="M-0.605957 1.81592C-0.605957 0.435206 0.513331 -0.684082 1.89404 -0.684082H6.48486C7.86558 -0.684082 8.98486 0.435206 8.98486 1.81592V2.31592C8.98486 2.31592 8.53715 2.31592 7.98486 2.31592H2.39404L-0.605957 1.81592ZM2.39404 2.31592M8.98486 8.90674H0.894043H8.98486M1.89404 8.90674C0.513331 8.90674 -0.605957 7.78745 -0.605957 6.40674V1.81592C-0.605957 0.435206 0.513331 -0.684082 1.89404 -0.684082L2.39404 2.31592V7.90674C2.39404 8.45902 2.39404 8.90674 2.39404 8.90674H1.89404ZM2.39404 8.90674M8.98486 0.815918V8.90674V0.815918" fill="#2D2EF5" mask="url(#path-4-inside-1_28_1906)"/>
<mask id="path-6-inside-2_28_1906" fill="white">
<path d="M0.894043 40.167C0.894043 40.7193 1.34176 41.167 1.89404 41.167H7.98486C8.53715 41.167 8.98486 40.7193 8.98486 40.167V34.0762C8.98486 33.5239 8.53715 33.0762 7.98486 33.0762H1.89404C1.34176 33.0762 0.894043 33.5239 0.894043 34.0762V40.167Z"/>
</mask>
<path d="M-0.605957 40.167C-0.605957 41.5477 0.513331 42.667 1.89404 42.667H6.48486C7.86558 42.667 8.98486 41.5477 8.98486 40.167V39.667C8.98486 39.667 8.53715 39.667 7.98486 39.667H2.39404L-0.605957 40.167ZM2.39404 39.667M8.98486 33.0762H0.894043H8.98486M1.89404 33.0762C0.513331 33.0762 -0.605957 34.1955 -0.605957 35.5762V40.167C-0.605957 41.5477 0.513331 42.667 1.89404 42.667L2.39404 39.667V34.0762C2.39404 33.5239 2.39404 33.0762 2.39404 33.0762H1.89404ZM2.39404 33.0762M8.98486 41.167V33.0762V41.167" fill="#2D2EF5" mask="url(#path-6-inside-2_28_1906)"/>
<mask id="path-8-inside-3_28_1906" fill="white">
<path d="M41.167 1.81592C41.167 1.26363 40.7193 0.815918 40.167 0.815918H34.0762C33.5239 0.815918 33.0762 1.26363 33.0762 1.81592V7.90674C33.0762 8.45902 33.5239 8.90674 34.0762 8.90674H40.167C40.7193 8.90674 41.167 8.45902 41.167 7.90674V1.81592Z"/>
</mask>
<path d="M42.667 1.81592C42.667 0.435206 41.5477 -0.684082 40.167 -0.684082H35.5762C34.1955 -0.684082 33.0762 0.435206 33.0762 1.81592V2.31592C33.0762 2.31592 33.5239 2.31592 34.0762 2.31592H39.667L42.667 1.81592ZM39.667 2.31592M33.0762 8.90674H41.167H33.0762M40.167 8.90674C41.5477 8.90674 42.667 7.78745 42.667 6.40674V1.81592C42.667 0.435206 41.5477 -0.684082 40.167 -0.684082L39.667 2.31592V7.90674C39.667 8.45902 39.667 8.90674 39.667 8.90674H40.167ZM39.667 8.90674M33.0762 0.815918V8.90674V0.815918" fill="#2D2EF5" mask="url(#path-8-inside-3_28_1906)"/>
<mask id="path-10-inside-4_28_1906" fill="white">
<path d="M41.167 40.167C41.167 40.7193 40.7193 41.167 40.167 41.167H34.0762C33.5239 41.167 33.0762 40.7193 33.0762 40.167V34.0762C33.0762 33.5239 33.5239 33.0762 34.0762 33.0762H40.167C40.7193 33.0762 41.167 33.5239 41.167 34.0762V40.167Z"/>
</mask>
<path d="M42.667 40.167C42.667 41.5477 41.5477 42.667 40.167 42.667H35.5762C34.1955 42.667 33.0762 41.5477 33.0762 40.167V39.667C33.0762 39.667 33.5239 39.667 34.0762 39.667H39.667L42.667 40.167ZM39.667 39.667M33.0762 33.0762H41.167H33.0762M40.167 33.0762C41.5477 33.0762 42.667 34.1955 42.667 35.5762V40.167C42.667 41.5477 41.5477 42.667 40.167 42.667L39.667 39.667V34.0762C39.667 33.5239 39.667 33.0762 39.667 33.0762H40.167ZM39.667 33.0762M33.0762 41.167V33.0762V41.167" fill="#2D2EF5" mask="url(#path-10-inside-4_28_1906)"/>
</g>
<defs>
<clipPath id="clip0_28_1906">
<rect width="41.167" height="41.167" fill="white"/>
</clipPath>
</defs>
</svg>
