<svg width="43" height="43" viewBox="0 0 43 43" fill="none" xmlns="http://www.w3.org/2000/svg">
<g clip-path="url(#clip0_28_1915)">
<path d="M7.66479 0.934814H27.8425C28.5857 0.934833 29.2984 1.22974 29.824 1.75513L37.3181 9.24927C37.8438 9.7749 38.1394 10.4883 38.1394 11.2317V38.342C38.1394 39.89 36.8846 41.1447 35.3367 41.1448H7.66479C6.11683 41.1448 4.86206 39.89 4.86206 38.342V3.73755C4.86206 2.18958 6.11683 0.934814 7.66479 0.934814Z" fill="#FFFEFE" stroke="#D54E03" stroke-width="1.86856"/>
<path d="M37.9655 24.1904H5.03468C3.59935 24.1904 2.43579 25.354 2.43579 26.7893V38.6517C2.43579 40.087 3.59935 41.2506 5.03468 41.2506H37.9655C39.4008 41.2506 40.5643 40.087 40.5643 38.6517V26.7893C40.5643 25.354 39.4008 24.1904 37.9655 24.1904Z" fill="#C84C08"/>
<path d="M17.2739 30.2969C17.1516 30.0015 16.9886 29.7367 16.7646 29.5126C16.5404 29.2885 16.2653 29.1051 15.9495 28.9828C15.6235 28.8504 15.2566 28.7893 14.8493 28.7893H11.8032V36.6539H13.3415V33.6893H14.8493C15.2568 33.6893 15.6235 33.6282 15.9495 33.4958C16.2653 33.3735 16.5402 33.1902 16.7646 32.966C16.9886 32.7419 17.1517 32.4872 17.2739 32.1816C17.3858 31.8862 17.447 31.5704 17.447 31.2444C17.4469 30.9082 17.3858 30.5924 17.2739 30.2969ZM15.6133 32.0185C15.4095 32.212 15.1243 32.3139 14.7778 32.3139H13.3415V30.1542H14.7778C15.1243 30.1542 15.4095 30.2561 15.6133 30.4598C15.8068 30.6533 15.9086 30.9182 15.9086 31.2442C15.9087 31.5601 15.8068 31.825 15.6133 32.0185Z" fill="#FFFEFE"/>
<path d="M24.6272 31.8348C24.6171 31.5598 24.607 31.3153 24.5763 31.0911C24.5459 30.8669 24.4948 30.6632 24.4234 30.4697C24.3522 30.2863 24.2605 30.1029 24.1381 29.94C23.8631 29.5426 23.527 29.2472 23.15 29.0638C22.7629 28.8804 22.3045 28.7888 21.7645 28.7888H18.9326V36.6534H21.7647C22.3047 36.6534 22.7631 36.5618 23.1501 36.3784C23.5272 36.195 23.8633 35.8996 24.1383 35.5023C24.2606 35.3393 24.3523 35.1559 24.4236 34.9725C24.4949 34.779 24.5459 34.5752 24.5764 34.3511C24.6071 34.1271 24.6171 33.8825 24.6274 33.6074C24.6375 33.3426 24.6375 33.0471 24.6375 32.7212C24.6374 32.3952 24.6374 32.0997 24.6272 31.8348ZM23.0889 33.5158C23.0889 33.7501 23.0686 33.9335 23.0481 34.0965C23.0277 34.2494 22.9973 34.3919 22.9565 34.4938C22.9158 34.6059 22.8546 34.7078 22.7834 34.7994C22.5286 35.1254 22.1416 35.2782 21.6322 35.2782H20.4608V30.1539H21.6322C22.1416 30.1539 22.5287 30.3169 22.7834 30.6428C22.8547 30.7345 22.9158 30.8262 22.9565 30.9383C22.9973 31.0503 23.0278 31.1827 23.0481 31.3457C23.0686 31.4985 23.0889 31.6921 23.0889 31.9161C23.099 32.1403 23.099 32.4154 23.099 32.7209C23.0992 33.0267 23.0992 33.2916 23.0889 33.5158Z" fill="#FFFEFE"/>
<path d="M31.1991 30.1539V28.7888H26.0137V36.6534H27.552V33.4649H30.6592V32.0895H27.552V30.1539H31.1991Z" fill="#FFFEFE"/>
<path opacity="0.08" d="M39.0737 9.6836V42.0792H3.92749V34.4836L20.3577 18.0536L21.3303 17.0809L21.8693 16.5418L22.7676 15.6435L23.8332 14.5779L33.9006 4.5105L39.0737 9.6836Z" fill="white"/>
<path d="M37.4791 8.08953C38.0677 8.67809 37.6508 9.68444 36.8185 9.68444H30.3239C29.8079 9.68444 29.3896 9.26615 29.3896 8.75016V2.25556C29.3896 1.42321 30.396 1.00636 30.9846 1.59493L37.4791 8.08953Z" fill="#D54E03"/>
</g>
<defs>
<clipPath id="clip0_28_1915">
<rect width="42.0791" height="42.0791" fill="white"/>
</clipPath>
</defs>
</svg>
