<svg width="15" height="15" viewBox="0 0 15 15" fill="none" xmlns="http://www.w3.org/2000/svg">
<path d="M12.8792 9.36676C12.8792 7.71096 12.8792 6.88306 12.3648 6.36866C11.8504 5.85425 11.0225 5.85425 9.36664 5.85425H4.68329C3.02749 5.85425 2.19959 5.85425 1.68519 6.36866C1.17078 6.88306 1.17078 7.71096 1.17078 9.36676C1.17078 11.0226 1.17078 11.8505 1.68519 12.3649C2.19959 12.8793 3.02749 12.8793 4.68329 12.8793H9.36664C11.0225 12.8793 11.8504 12.8793 12.3648 12.3649C12.8792 11.8505 12.8792 11.0226 12.8792 9.36676Z" fill="#6D56ED"/>
<path d="M6.58598 8.1959C6.58598 7.95342 6.78257 7.75684 7.02505 7.75684C7.26753 7.75684 7.46411 7.95342 7.46411 8.1959V10.5376C7.46411 10.7801 7.26753 10.9766 7.02505 10.9766C6.78257 10.9766 6.58598 10.7801 6.58598 10.5376V8.1959Z" fill="white"/>
<path d="M10.0984 4.68327C10.0984 2.98585 8.7224 1.60982 7.02499 1.60982C5.32757 1.60982 3.95154 2.98585 3.95154 4.68327V5.85621C3.61937 5.85931 3.32895 5.86698 3.07341 5.88607V4.68327C3.07341 2.50087 4.8426 0.731689 7.02499 0.731689C9.20738 0.731689 10.9766 2.50087 10.9766 4.68327V5.88607C10.721 5.86698 10.4306 5.85931 10.0984 5.85621V4.68327Z" fill="#6D56ED"/>
</svg>
