<svg width="30" height="30" viewBox="0 0 30 30" fill="none" xmlns="http://www.w3.org/2000/svg">
<path fill-rule="evenodd" clip-rule="evenodd" d="M16.9865 4.00229C16.573 3.83228 16.0486 3.83228 15 3.83228C13.9513 3.83228 13.427 3.83228 13.0135 4.00229C12.462 4.22899 12.0239 4.6638 11.7955 5.21108C11.6912 5.46091 11.6504 5.75145 11.6344 6.17526C11.611 6.79807 11.2891 7.37456 10.7453 7.68619C10.2014 7.9978 9.53744 7.98617 8.98223 7.69493C8.60442 7.49675 8.33048 7.38655 8.06033 7.35126C7.46856 7.27393 6.87006 7.43308 6.39653 7.7937C6.04137 8.06416 5.77921 8.5148 5.25489 9.41607C4.73058 10.3174 4.46843 10.768 4.41 11.2085C4.33208 11.7958 4.49245 12.3897 4.85582 12.8597C5.02167 13.0743 5.25475 13.2545 5.61651 13.4801C6.14833 13.8118 6.49052 14.3768 6.49048 15C6.49045 15.6233 6.14827 16.1882 5.61651 16.5197C5.25469 16.7454 5.02157 16.9258 4.8557 17.1403C4.49234 17.6103 4.33198 18.2042 4.40989 18.7915C4.46832 19.2319 4.73048 19.6827 5.25478 20.5839C5.7791 21.4851 6.04126 21.9359 6.39642 22.2062C6.86995 22.5669 7.46844 22.726 8.06022 22.6487C8.33036 22.6134 8.60427 22.5032 8.98205 22.3051C9.5373 22.0138 10.2013 22.0022 10.7452 22.3138C11.2891 22.6255 11.6109 23.202 11.6344 23.8249C11.6504 24.2486 11.6912 24.5392 11.7955 24.789C12.0239 25.3362 12.462 25.7711 13.0135 25.9978C13.427 26.1678 13.9513 26.1678 15 26.1678C16.0486 26.1678 16.573 26.1678 16.9865 25.9978C17.538 25.7711 17.9761 25.3362 18.2045 24.789C18.3088 24.5392 18.3496 24.2486 18.3656 23.8248C18.3891 23.202 18.7108 22.6255 19.2547 22.3138C19.7985 22.0021 20.4626 22.0138 21.0178 22.3051C21.3956 22.5032 21.6695 22.6133 21.9396 22.6486C22.5314 22.726 23.1299 22.5669 23.6034 22.2062C23.9586 21.9358 24.2208 21.4851 24.7451 20.5838C25.2694 19.6826 25.5315 19.2319 25.59 18.7915C25.6679 18.2042 25.5075 17.6102 25.1442 17.1402C24.9783 16.9257 24.7452 16.7453 24.3834 16.5197C23.8517 16.1882 23.5095 15.6232 23.5095 14.9999C23.5095 14.3766 23.8517 13.8119 24.3834 13.4803C24.7453 13.2546 24.9784 13.0744 25.1443 12.8597C25.5076 12.3898 25.668 11.7959 25.5901 11.2085C25.5316 10.7681 25.2695 10.3174 24.7452 9.41615C24.2209 8.51488 23.9588 8.06424 23.6035 7.79378C23.13 7.43316 22.5315 7.27401 21.9397 7.35134C21.6696 7.38663 21.3956 7.49682 21.018 7.69498C20.4627 7.98622 19.7987 7.99787 19.2548 7.68622C18.7109 7.37459 18.3891 6.79805 18.3655 6.1752C18.3495 5.75143 18.3088 5.4609 18.2045 5.21108C17.9761 4.6638 17.538 4.22899 16.9865 4.00229ZM15 18.3504C16.8644 18.3504 18.3758 16.8504 18.3758 15C18.3758 13.1496 16.8644 11.6497 15 11.6497C13.1355 11.6497 11.6242 13.1496 11.6242 15C11.6242 16.8504 13.1355 18.3504 15 18.3504Z" fill="#C4C4C4"/>
</svg>
