<svg width="15" height="15" viewBox="0 0 15 15" fill="none" xmlns="http://www.w3.org/2000/svg">
<g clip-path="url(#clip0_28_1851)">
<path d="M5.75622 1.79268C6.54459 1.99251 7.16325 2.61117 7.36308 3.39954C7.38224 3.47619 7.48079 3.47619 7.49995 3.39954C7.69979 2.61117 8.31844 1.99251 9.10682 1.79268C9.18347 1.77352 9.18347 1.67497 9.10682 1.65581C8.31844 1.45598 7.69979 0.837318 7.49995 0.0489409C7.48079 -0.0277069 7.38224 -0.0277069 7.36308 0.0489409C7.16325 0.837318 6.54459 1.45598 5.75622 1.65581C5.67957 1.67497 5.67957 1.77352 5.75622 1.79268Z" fill="#F9BE49"/>
<path d="M0.183608 5.15451C1.57422 5.50764 2.66919 6.60261 3.02231 7.99322C3.05516 8.12735 3.22762 8.12735 3.26321 7.99322C3.61633 6.60261 4.7113 5.50764 6.10191 5.15451C6.23605 5.12166 6.23605 4.94921 6.10191 4.91362C4.70857 4.56323 3.6136 3.46826 3.26321 2.07765C3.23036 1.94352 3.0579 1.94352 3.02231 2.07765C2.66919 3.46826 1.57422 4.56323 0.183608 4.91636C0.0494744 4.94921 0.0494744 5.12166 0.183608 5.15451Z" fill="#F9BE49"/>
<path d="M4.92722 9.60016C7.00766 10.1285 8.64737 11.7655 9.17296 13.8459C9.22497 14.0457 9.48229 14.0457 9.53156 13.8459C10.0599 11.7655 11.6969 10.1257 13.7773 9.60016C13.9771 9.54815 13.9771 9.29084 13.7773 9.24156C11.6969 8.71324 10.0571 7.07626 9.53156 4.99582C9.47955 4.79599 9.22223 4.79599 9.17296 4.99582C8.64464 7.07626 7.00766 8.71598 4.92722 9.24156C4.72739 9.29084 4.72739 9.54815 4.92722 9.60016Z" fill="#F9BE49"/>
</g>
<defs>
<clipPath id="clip0_28_1851">
<rect width="14.0156" height="14.0156" fill="white"/>
</clipPath>
</defs>
</svg>
