<svg width="24" height="24" viewBox="0 0 24 24" fill="none" xmlns="http://www.w3.org/2000/svg">
<path d="M11.8326 2.1686C11.9823 1.70795 12.634 1.70795 12.7836 2.1686L14.7721 8.28835C14.839 8.49436 15.031 8.63384 15.2476 8.63384H21.6823C22.1666 8.63384 22.368 9.25365 21.9762 9.53835L16.7704 13.3206C16.5951 13.4479 16.5218 13.6736 16.5888 13.8796L18.5772 19.9993C18.7269 20.46 18.1996 20.843 17.8078 20.5583L12.602 16.7761C12.4268 16.6488 12.1895 16.6488 12.0142 16.7761L6.80845 20.5583C6.41659 20.843 5.88935 20.46 6.03903 19.9993L8.02745 13.8796C8.09439 13.6736 8.02106 13.4479 7.84582 13.3206L2.64005 9.53835C2.2482 9.25365 2.44958 8.63384 2.93395 8.63384H9.36862C9.58524 8.63384 9.77722 8.49436 9.84415 8.28835L11.8326 2.1686Z" fill="url(#paint0_linear_199_10882)"/>
<defs>
<linearGradient id="paint0_linear_199_10882" x1="4.38837" y1="3.10281" x2="18.2258" y2="23.6543" gradientUnits="userSpaceOnUse">
<stop stop-color="#4973FE"/>
<stop offset="1" stop-color="#7651DF"/>
</linearGradient>
</defs>
</svg>
