<svg width="24" height="24" viewBox="0 0 24 24" fill="none" xmlns="http://www.w3.org/2000/svg">
<g clip-path="url(#clip0_199_10891)">
<path fill-rule="evenodd" clip-rule="evenodd" d="M14.0432 4.15806C14.0432 2.00617 15.7956 0.261719 17.9573 0.261719C20.1189 0.261719 21.8713 2.00617 21.8713 4.15806C21.8713 6.30995 20.1189 8.0544 17.9573 8.0544C16.8657 8.0544 15.8793 7.60939 15.1701 6.89345L9.75181 10.5825C9.80184 10.8315 9.82814 11.0887 9.82814 11.3513C9.82814 11.8715 9.72528 12.3687 9.53894 12.8232L15.4801 16.7266C16.1545 16.1776 17.0172 15.847 17.9573 15.847C20.1189 15.847 21.8713 17.5915 21.8713 19.7435C21.8713 21.8953 20.1189 23.6398 17.9573 23.6398C15.7956 23.6398 14.0432 21.8953 14.0432 19.7435C14.0432 19.1798 14.1638 18.6433 14.3807 18.1589L8.48749 14.287C7.80005 14.8845 6.89957 15.2476 5.91405 15.2476C3.75238 15.2476 2 13.5032 2 11.3513C2 9.19941 3.75238 7.45497 5.91405 7.45497C7.15708 7.45497 8.2636 8.0317 8.98004 8.92934L14.2313 5.35395C14.1091 4.97659 14.0432 4.5745 14.0432 4.15806Z" fill="url(#paint0_linear_199_10891)"/>
</g>
<defs>
<linearGradient id="paint0_linear_199_10891" x1="3.70693" y1="1.95612" x2="20.804" y2="22.9193" gradientUnits="userSpaceOnUse">
<stop stop-color="#4973FE"/>
<stop offset="1" stop-color="#7651DF"/>
</linearGradient>
<clipPath id="clip0_199_10891">
<rect width="24" height="24" fill="white"/>
</clipPath>
</defs>
</svg>
