<svg width="30" height="30" viewBox="0 0 30 30" fill="none" xmlns="http://www.w3.org/2000/svg">
<rect width="30" height="30" rx="2.1876" fill="#F1EFFF"/>
<path fill-rule="evenodd" clip-rule="evenodd" d="M10.3139 6.40918C9.0199 6.40918 7.97089 7.4582 7.97089 8.75222V21.2484C7.97089 22.5425 9.0199 23.5915 10.3139 23.5915H19.6861C20.9801 23.5915 22.0291 22.5425 22.0291 21.2484V12.5233C22.0291 11.9019 21.7822 11.3059 21.3428 10.8665L17.5718 7.09544C17.1324 6.65603 16.5364 6.40918 15.915 6.40918H10.3139ZM9.53291 8.75222C9.53291 8.32088 9.88259 7.9712 10.3139 7.9712H15V11.8763C15 12.739 15.6993 13.4383 16.562 13.4383H20.4671V21.2484C20.4671 21.6798 20.1174 22.0294 19.6861 22.0294H10.3139C9.88259 22.0294 9.53291 21.6798 9.53291 21.2484V8.75222ZM20.1436 11.8763L16.562 8.29471V11.8763H20.1436Z" fill="#615EF3"/>
<rect x="14.7891" y="14.2861" width="1.50851" height="3.91952" rx="0.543039" transform="rotate(91.1833 14.7891 14.2861)" fill="#615EF3"/>
<rect x="16.9571" y="17.498" width="1.50851" height="6.08799" rx="0.543039" transform="rotate(91.1833 16.9571 17.498)" fill="#615EF3"/>
</svg>
