<svg width="30" height="30" viewBox="0 0 30 30" fill="none" xmlns="http://www.w3.org/2000/svg">
<rect width="30" height="30" rx="2.1876" fill="#F1EFFF"/>
<path d="M15 23.5908C10.2747 23.5908 6.40865 19.7247 6.40865 14.9995C6.40865 10.2743 10.2747 6.4082 15 6.4082C19.7252 6.4082 23.5913 10.2743 23.5913 14.9995C23.5913 19.7247 19.7252 23.5908 15 23.5908ZM13.2101 18.5792C13.6397 20.7986 14.4272 22.1589 15 22.1589C15.5727 22.1589 16.3602 20.7986 16.7898 18.5792H13.2101ZM18.2933 18.5792C18.0785 19.7963 17.7205 20.9418 17.291 21.801C18.9376 21.2282 20.3695 20.0827 21.2287 18.5792H18.2933ZM8.77126 18.5792C9.63039 20.0827 11.0623 21.2282 12.7089 21.801C12.2794 20.9418 11.9214 19.7963 11.7066 18.5792H8.77126ZM18.5081 17.1473H21.873C22.0162 16.503 22.1594 15.7155 22.1594 14.9995C22.1594 14.2836 22.0162 13.496 21.8014 12.8517H18.4365C18.5797 13.5676 18.5797 14.2836 18.5797 14.9995C18.5797 15.7155 18.5797 16.4314 18.5081 17.1473ZM12.9953 17.1473H17.0762C17.1478 16.503 17.2194 15.787 17.2194 14.9995C17.2194 14.212 17.1478 13.496 17.0762 12.8517H12.9953C12.9237 13.496 12.8521 14.212 12.8521 14.9995C12.8521 15.787 12.9237 16.503 12.9953 17.1473ZM8.1985 17.1473H11.5634C11.4918 16.4314 11.4918 15.7155 11.4918 14.9995C11.4918 14.2836 11.4918 13.5676 11.5634 12.8517H8.1985C7.98372 13.496 7.84053 14.2836 7.84053 14.9995C7.84053 15.7155 7.98372 16.503 8.1985 17.1473ZM18.2933 11.4198H21.2287C20.3695 9.91632 18.9376 8.77081 17.291 8.19806C17.7205 9.05719 18.0785 10.2027 18.2933 11.4198ZM13.2101 11.4198H16.8614C16.4318 9.20038 15.6443 7.84009 15.0715 7.84009C14.4988 7.84009 13.6397 9.20038 13.2101 11.4198ZM8.77126 11.4198H11.7066C11.9214 10.2027 12.2794 9.05719 12.7089 8.19806C11.0623 8.77081 9.70198 9.91632 8.77126 11.4198Z" fill="#615EF3"/>
</svg>
