<svg width="30" height="30" viewBox="0 0 30 30" fill="none" xmlns="http://www.w3.org/2000/svg">
<rect width="30" height="30" rx="2.34386" fill="#F1EFFF"/>
<path d="M13.3675 14.9521L14.4576 13.8623C13.1892 13.2794 11.6363 13.5093 10.5929 14.5529C9.25422 15.8914 9.25422 18.0697 10.5929 19.4087C11.9313 20.7474 14.1099 20.7474 15.4484 19.4087C16.4918 18.3653 16.7219 16.8121 16.139 15.5437L15.049 16.6338C15.1567 17.2703 14.9676 17.9473 14.4774 18.4374C13.6741 19.2409 12.3672 19.2409 11.564 18.4374C10.7607 17.6341 10.7607 16.3273 11.564 15.5242C12.0542 15.0337 12.7312 14.8444 13.3675 14.9521Z" fill="#615EF3"/>
<path d="M17.1549 14.5269C18.2485 16.371 18.0038 18.7946 16.4196 20.3786C14.5452 22.253 11.4959 22.253 9.62173 20.3786C7.74735 18.5045 7.74735 15.4549 9.62173 13.5805C11.2054 11.9965 13.6293 11.7518 15.4734 12.8452L16.4681 11.8503C14.066 10.2351 10.7724 10.4875 8.65042 12.6092C6.24063 15.0187 6.24063 18.9401 8.65042 21.3496C11.0602 23.7597 14.9811 23.7597 17.3909 21.3496C19.5131 19.2277 19.7653 15.9341 18.1495 13.5317L17.1549 14.5269Z" fill="#615EF3"/>
<path d="M23.134 9.54696C23.0827 9.4133 22.9529 9.33093 22.8059 9.33762L20.5575 9.44309L20.6632 7.19495C20.6696 7.04768 20.5872 6.91838 20.4536 6.86657C20.3207 6.81527 20.163 6.8522 20.0547 6.95996L17.6554 9.35945L17.534 11.9506L13.1722 16.3122C12.9503 16.2619 12.7081 16.3215 12.5352 16.4944C12.2668 16.7627 12.2668 17.1973 12.5352 17.4657C12.8033 17.734 13.2381 17.734 13.5065 17.4657C13.6791 17.2928 13.7389 17.0506 13.6886 16.8284L18.0502 12.4665L20.6412 12.3454L23.0407 9.94564C23.1487 9.83765 23.1854 9.68034 23.134 9.54696Z" fill="#615EF3"/>
</svg>
