<svg width="30" height="30" viewBox="0 0 30 30" fill="none" xmlns="http://www.w3.org/2000/svg">
<rect width="30" height="30" rx="2.34386" fill="#F1EFFF"/>
<path d="M13.7526 6.9834C17.4888 6.98363 20.5212 9.96488 20.5212 13.6494C20.5211 15.3204 19.8891 16.8377 18.8581 18.0059L22.8239 21.9092L22.9079 22.0117C23.076 22.2637 23.0489 22.6063 22.8229 22.8252C22.567 23.0786 22.1534 23.0793 21.8972 22.8262L17.9079 18.9004C16.7605 19.7822 15.32 20.3095 13.7526 20.3096C10.0164 20.3096 6.98323 17.3291 6.98309 13.6494C6.98309 9.96473 10.0162 6.9834 13.7526 6.9834ZM13.7526 8.28027C10.7365 8.28027 8.29462 10.6869 8.29462 13.6494C8.29475 16.6117 10.7364 19.0137 13.7526 19.0137C16.7686 19.0134 19.2095 16.6115 19.2097 13.6494C19.2097 10.687 16.7685 8.28051 13.7526 8.28027Z" fill="#615EF3" stroke="#615EF3" stroke-width="0.292982"/>
</svg>
