<svg width="33" height="33" viewBox="0 0 33 33" fill="none" xmlns="http://www.w3.org/2000/svg">
<g clip-path="url(#clip0_164_5994)">
<rect width="32.7208" height="32.7208" rx="7" fill="#6E37DF"/>
<path d="M9.16131 16.6517C12.546 17.5112 15.2137 20.1744 16.0688 23.5591C16.1534 23.8843 16.572 23.8843 16.6522 23.5591C17.5117 20.1744 20.1749 17.5068 23.5596 16.6517C23.8847 16.5671 23.8847 16.1484 23.5596 16.0683C20.1749 15.2087 17.5073 12.5455 16.6522 9.16082C16.5676 8.83571 16.1489 8.83571 16.0688 9.16082C15.2092 12.5455 12.546 15.2132 9.16131 16.0683C8.8362 16.1484 8.8362 16.5671 9.16131 16.6517Z" fill="white"/>
<path d="M7.55877 9.74571C8.78123 10.0562 9.74472 11.018 10.0536 12.2405C10.0841 12.3579 10.2353 12.3579 10.2643 12.2405C10.5747 11.018 11.5366 10.0545 12.7591 9.74571C12.8765 9.71515 12.8765 9.56395 12.7591 9.535C11.5366 9.22456 10.5731 8.26268 10.2643 7.04021C10.2337 6.92279 10.0825 6.92279 10.0536 7.04021C9.74311 8.26268 8.78123 9.22617 7.55877 9.535C7.44135 9.56395 7.44135 9.71515 7.55877 9.74571Z" fill="white"/>
</g>
<defs>
<clipPath id="clip0_164_5994">
<rect width="32.7208" height="32.7208" rx="7" fill="white"/>
</clipPath>
</defs>
</svg>
