<svg width="33" height="33" viewBox="0 0 33 33" fill="none" xmlns="http://www.w3.org/2000/svg">
<g clip-path="url(#clip0_164_6014)">
<rect width="32.7208" height="32.7208" rx="7" fill="#4CBD6B"/>
<path d="M16.3606 11.0743C17.7189 10.2936 19.1982 9.74528 20.7373 9.45201C21.0841 9.36889 21.4455 9.36756 21.7929 9.44814C22.1404 9.52871 22.4643 9.68892 22.7391 9.91621C23.014 10.1435 23.2323 10.4316 23.3766 10.7577C23.521 11.0839 23.5874 11.4391 23.5709 11.7954V18.2846C23.5492 19.0901 23.2584 19.865 22.7448 20.4858C22.2312 21.1065 21.5244 21.5374 20.7373 21.7095C19.1982 22.0028 17.7189 22.5512 16.3606 23.3319" stroke="white" stroke-width="1.08155" stroke-linecap="round" stroke-linejoin="round"/>
<path d="M16.3602 11.0743C15.0019 10.2936 13.5227 9.74528 11.9836 9.45201C11.6368 9.36889 11.2754 9.36756 10.928 9.44814C10.5805 9.52871 10.2566 9.68892 9.98178 9.91621C9.70694 10.1435 9.48868 10.4316 9.34431 10.7577C9.19996 11.0839 9.1334 11.4391 9.14993 11.7954V18.2846C9.17162 19.0901 9.46248 19.865 9.9761 20.4858C10.4897 21.1065 11.1965 21.5374 11.9836 21.7095C13.5227 22.0028 15.0019 22.5512 16.3602 23.3319" stroke="white" stroke-width="1.08155" stroke-linecap="round" stroke-linejoin="round"/>
<path d="M16.3606 23.3318V11.0742" stroke="white" stroke-width="1.08155" stroke-linecap="round" stroke-linejoin="round"/>
</g>
<defs>
<clipPath id="clip0_164_6014">
<rect width="32.7208" height="32.7208" rx="7" fill="white"/>
</clipPath>
</defs>
</svg>
