<svg width="33" height="33" viewBox="0 0 33 33" fill="none" xmlns="http://www.w3.org/2000/svg">
<g clip-path="url(#clip0_164_6022)">
<rect width="32.7208" height="32.7208" rx="7" fill="#FCCF80"/>
<path d="M25.2577 19.0847C25.1192 19.0849 24.9838 19.0437 24.8688 18.9664C24.7539 18.8891 24.6646 18.7793 24.6126 18.6509L21.4259 10.9205L17.7498 18.6843C17.7107 18.7668 17.6558 18.8408 17.5881 18.9021C17.5204 18.9634 17.4413 19.0108 17.3553 19.0415C17.2693 19.0722 17.1781 19.0857 17.0869 19.0812C16.9957 19.0767 16.9063 19.0542 16.8238 19.0152C16.6571 18.9363 16.5286 18.7944 16.4666 18.6207C16.4359 18.5347 16.4224 18.4435 16.4269 18.3523C16.4314 18.2611 16.4538 18.1717 16.4929 18.0892L20.8419 8.90174C20.9 8.78094 20.9918 8.67951 21.1062 8.60966C21.2206 8.53981 21.3527 8.50453 21.4867 8.50805C21.6207 8.51158 21.7508 8.55377 21.8614 8.62953C21.972 8.7053 22.0583 8.81142 22.1099 8.93511L25.9028 18.1226C25.9719 18.2917 25.9722 18.4811 25.9036 18.6504C25.835 18.8198 25.703 18.9556 25.5358 19.0291C25.4482 19.0677 25.3533 19.0866 25.2577 19.0847Z" fill="#735021"/>
<path d="M23.4171 15.5241H19.1793C18.9949 15.5241 18.8181 15.4509 18.6877 15.3205C18.5574 15.1902 18.4841 15.0133 18.4841 14.829C18.4841 14.6446 18.5574 14.4678 18.6877 14.3374C18.8181 14.207 18.9949 14.1338 19.1793 14.1338H23.4171C23.6015 14.1338 23.7783 14.207 23.9087 14.3374C24.039 14.4678 24.1123 14.6446 24.1123 14.829C24.1123 15.0133 24.039 15.1902 23.9087 15.3205C23.7783 15.4509 23.6015 15.5241 23.4171 15.5241Z" fill="#735021"/>
<path d="M8.51233 24.2123C8.3933 24.2111 8.27668 24.1786 8.17418 24.1181C8.07168 24.0576 7.98691 23.9712 7.92838 23.8675C7.83021 23.7125 7.79734 23.5249 7.83693 23.3457C7.87652 23.1665 7.98536 23.0102 8.13971 22.911C12.7779 19.9745 13.2228 15.6811 13.2395 15.5032C13.2584 15.3216 13.3479 15.1548 13.4887 15.0387C13.6295 14.9226 13.8104 14.8665 13.9922 14.8826C14.174 14.8986 14.3422 14.9856 14.4604 15.1246C14.5787 15.2636 14.6376 15.4435 14.6243 15.6255C14.6243 15.8368 14.1294 20.7643 8.88494 24.0844C8.77552 24.1618 8.64621 24.2062 8.51233 24.2123Z" fill="#735021"/>
<path d="M14.7577 23.2065C14.7024 23.2148 14.6461 23.2148 14.5908 23.2065C11.1817 22.3389 8.51219 18.4348 8.40096 18.2679C8.3467 18.1924 8.30813 18.1068 8.28754 18.0162C8.26694 17.9255 8.26474 17.8317 8.28106 17.7401C8.29738 17.6486 8.33189 17.5613 8.38254 17.4834C8.4332 17.4054 8.49898 17.3384 8.57598 17.2863C8.65299 17.2342 8.73966 17.1981 8.83086 17.1801C8.92207 17.1621 9.01595 17.1626 9.10697 17.1816C9.19799 17.2005 9.28428 17.2375 9.36075 17.2903C9.43722 17.3432 9.50231 17.4109 9.55217 17.4893C9.55217 17.5227 12.0381 21.1209 14.9245 21.8383C15.0876 21.8806 15.2299 21.9807 15.3247 22.1199C15.4196 22.2592 15.4607 22.4282 15.4403 22.5955C15.4199 22.7627 15.3394 22.9169 15.2138 23.0293C15.0883 23.1417 14.9262 23.2046 14.7577 23.2065Z" fill="#735021"/>
<path d="M15.9091 15.6755H7.46129C7.27692 15.6755 7.1001 15.6023 6.96973 15.4719C6.83935 15.3415 6.76611 15.1647 6.76611 14.9803C6.76611 14.796 6.83935 14.6191 6.96973 14.4888C7.1001 14.3584 7.27692 14.2852 7.46129 14.2852H15.9091C16.0935 14.2852 16.2703 14.3584 16.4006 14.4888C16.531 14.6191 16.6043 14.796 16.6043 14.9803C16.6043 15.1647 16.531 15.3415 16.4006 15.4719C16.2703 15.6023 16.0935 15.6755 15.9091 15.6755Z" fill="#735021"/>
<path d="M11.4544 15.6756C11.2953 15.6747 11.1414 15.6189 11.0187 15.5175C10.8961 15.4162 10.8123 15.2755 10.7815 15.1194L10.3143 13.1952C10.2892 13.1051 10.2826 13.0109 10.2947 12.9183C10.3069 12.8256 10.3376 12.7363 10.3851 12.6558C10.4325 12.5752 10.4957 12.5051 10.5709 12.4495C10.6461 12.394 10.7317 12.3542 10.8226 12.3325C10.9135 12.3108 11.0079 12.3076 11.1001 12.3232C11.1922 12.3388 11.2803 12.3729 11.359 12.4233C11.4377 12.4737 11.5054 12.5395 11.5581 12.6167C11.6108 12.6939 11.6474 12.7809 11.6657 12.8726L12.1329 14.7969C12.1572 14.8863 12.1635 14.9797 12.1514 15.0717C12.1394 15.1636 12.1092 15.2522 12.0626 15.3324C12.0161 15.4126 11.9541 15.4827 11.8802 15.5388C11.8064 15.5948 11.7221 15.6356 11.6324 15.6589C11.5739 15.6711 11.5142 15.6767 11.4544 15.6756Z" fill="#735021"/>
</g>
<defs>
<clipPath id="clip0_164_6022">
<rect width="32.7208" height="32.7208" rx="7" fill="white"/>
</clipPath>
</defs>
</svg>
