<svg width="44" height="44" viewBox="0 0 44 44" fill="none" xmlns="http://www.w3.org/2000/svg">
<path d="M5.25757 9.87455V15.9419C5.25757 16.4942 5.70528 16.9419 6.25757 16.9419H36.0978C36.7846 16.9419 37.267 16.2655 37.0433 15.6162L35.9326 12.3917C35.7936 11.9882 35.4139 11.7174 34.9872 11.7174H21.3054C20.9759 11.7174 20.6675 11.555 20.481 11.2834L17.5528 7.01846C17.3663 6.74681 17.0579 6.58447 16.7284 6.58447H8.13099C7.83103 6.58447 7.54691 6.71912 7.35698 6.95129L5.48356 9.24137C5.33742 9.42002 5.25757 9.64373 5.25757 9.87455Z" fill="#A9C4EE" stroke="#A9C4EE"/>
<g filter="url(#filter0_d_302_11317)">
<rect x="4.70483" y="14.4365" width="34.2832" height="22.6707" rx="3" fill="#5389DE"/>
</g>
<defs>
<filter id="filter0_d_302_11317" x="3.70483" y="13.4365" width="36.2832" height="24.6704" filterUnits="userSpaceOnUse" color-interpolation-filters="sRGB">
<feFlood flood-opacity="0" result="BackgroundImageFix"/>
<feColorMatrix in="SourceAlpha" type="matrix" values="0 0 0 0 0 0 0 0 0 0 0 0 0 0 0 0 0 0 127 0" result="hardAlpha"/>
<feOffset/>
<feGaussianBlur stdDeviation="0.5"/>
<feComposite in2="hardAlpha" operator="out"/>
<feColorMatrix type="matrix" values="0 0 0 0 0 0 0 0 0 0 0 0 0 0 0 0 0 0 0.25 0"/>
<feBlend mode="normal" in2="BackgroundImageFix" result="effect1_dropShadow_302_11317"/>
<feBlend mode="normal" in="SourceGraphic" in2="effect1_dropShadow_302_11317" result="shape"/>
</filter>
</defs>
</svg>
