<svg width="31" height="31" viewBox="0 0 31 31" fill="none" xmlns="http://www.w3.org/2000/svg">
<rect width="30.1523" height="30.1523" rx="3.82874" fill="#E6E3FF"/>
<path d="M19.137 11.6082C18.9605 11.432 18.6745 11.4322 18.4982 11.6087L15.351 14.76C15.1751 14.9362 14.8898 14.9367 14.7131 14.7613L13.9127 13.9662C13.7357 13.7904 13.4497 13.7914 13.2739 13.9684L13.1147 14.1286C12.9389 14.3056 12.9399 14.5916 13.1169 14.7674L14.7163 16.3561C14.8929 16.5315 15.1782 16.531 15.3542 16.3548L19.2973 12.4067C19.4736 12.2301 19.4734 11.9441 19.2968 11.7679L19.137 11.6082Z" fill="#6D38DE"/>
<path fill-rule="evenodd" clip-rule="evenodd" d="M10.8631 7.92383C10.4889 7.92383 10.1855 8.22718 10.1855 8.60138V19.2916C10.1855 19.6658 10.4889 19.9691 10.8631 19.9691H21.5533C21.9275 19.9691 22.2308 19.6658 22.2308 19.2916V8.60138C22.2308 8.22718 21.9275 7.92383 21.5533 7.92383H10.8631ZM21.1016 9.73062C21.1016 9.35642 20.7983 9.05308 20.4241 9.05308H11.9923C11.6181 9.05308 11.3148 9.35642 11.3148 9.73062V18.1623C11.3148 18.5365 11.6181 18.8399 11.9923 18.8399H20.4241C20.7983 18.8399 21.1016 18.5365 21.1016 18.1623V9.73062Z" fill="#6D38DE"/>
<path d="M7.92334 10.7472C7.92334 10.4354 8.17613 10.1826 8.48796 10.1826C8.7998 10.1826 9.05259 10.4354 9.05259 10.7472V20.4211C9.05259 20.7953 9.35594 21.0987 9.73013 21.0987H19.404C19.7158 21.0987 19.9686 21.3515 19.9686 21.6633C19.9686 21.9751 19.7158 22.2279 19.404 22.2279H8.60089C8.22669 22.2279 7.92334 21.9246 7.92334 21.5504V10.7472Z" fill="#6D38DE"/>
</svg>
