<svg width="30" height="30" viewBox="0 0 30 30" fill="none" xmlns="http://www.w3.org/2000/svg">
<path d="M22.4446 12.468H16.21" stroke="#9668DB" stroke-width="1.8704" stroke-linecap="round"/>
<path d="M2.49365 8.66566C2.49365 7.5652 2.49365 7.01497 2.58013 6.55665C2.9608 4.53901 4.53901 2.9608 6.55665 2.58013C7.01497 2.49365 7.5652 2.49365 8.66566 2.49365C9.14781 2.49365 9.38889 2.49365 9.62058 2.51532C10.6195 2.60873 11.567 3.0012 12.3394 3.64147C12.5185 3.78998 12.6889 3.96046 13.0299 4.30139L13.716 4.98752C14.7333 6.00474 15.2419 6.51335 15.8509 6.85222C16.1855 7.03836 16.5405 7.18536 16.9087 7.29033C17.5789 7.48138 18.2982 7.48138 19.7367 7.48138H20.2027C23.4851 7.48138 25.1262 7.48138 26.1931 8.44085C26.2912 8.52911 26.3846 8.6225 26.4728 8.72062C27.4323 9.7874 27.4323 11.4286 27.4323 14.711V17.4568C27.4323 22.1593 27.4323 24.5106 25.9714 25.9714C24.5106 27.4323 22.1593 27.4323 17.4568 27.4323H12.4691C7.76663 27.4323 5.4154 27.4323 3.95452 25.9714C2.49365 24.5106 2.49365 22.1593 2.49365 17.4568V8.66566Z" stroke="#9668DB" stroke-width="1.8704"/>
</svg>
