<svg width="44" height="44" viewBox="0 0 44 44" fill="none" xmlns="http://www.w3.org/2000/svg">
<path d="M5.25684 9.87455V15.9419C5.25684 16.4942 5.70455 16.9419 6.25684 16.9419H36.0971C36.7838 16.9419 37.2662 16.2655 37.0426 15.6162L35.9319 12.3917C35.7929 11.9882 35.4132 11.7174 34.9864 11.7174H21.3047C20.9752 11.7174 20.6668 11.555 20.4803 11.2834L17.5521 7.01846C17.3656 6.74681 17.0572 6.58447 16.7277 6.58447H8.13025C7.83029 6.58447 7.54618 6.71912 7.35625 6.95129L5.48283 9.24137C5.33668 9.42002 5.25684 9.64373 5.25684 9.87455Z" fill="#E5AC8D" stroke="#E5AC8D"/>
<g filter="url(#filter0_d_302_11301)">
<rect x="4.7041" y="14.4365" width="34.2832" height="22.6707" rx="3" fill="#CC5A1C"/>
</g>
<defs>
<filter id="filter0_d_302_11301" x="3.7041" y="13.4365" width="36.2832" height="24.6709" filterUnits="userSpaceOnUse" color-interpolation-filters="sRGB">
<feFlood flood-opacity="0" result="BackgroundImageFix"/>
<feColorMatrix in="SourceAlpha" type="matrix" values="0 0 0 0 0 0 0 0 0 0 0 0 0 0 0 0 0 0 127 0" result="hardAlpha"/>
<feOffset/>
<feGaussianBlur stdDeviation="0.5"/>
<feComposite in2="hardAlpha" operator="out"/>
<feColorMatrix type="matrix" values="0 0 0 0 0 0 0 0 0 0 0 0 0 0 0 0 0 0 0.25 0"/>
<feBlend mode="normal" in2="BackgroundImageFix" result="effect1_dropShadow_302_11301"/>
<feBlend mode="normal" in="SourceGraphic" in2="effect1_dropShadow_302_11301" result="shape"/>
</filter>
</defs>
</svg>
