<svg width="60" height="60" viewBox="0 0 60 60" fill="none" xmlns="http://www.w3.org/2000/svg">
<rect width="60" height="60" rx="30" fill="white"/>
<path d="M34.6067 19.9735C36.3791 18.1944 38.9713 18.157 40.4065 19.5977C41.8442 21.0411 41.8056 23.6497 40.0321 25.4301L37.0373 28.4365C36.6761 28.7992 36.6772 29.386 37.0397 29.7471C37.4024 30.1083 37.9892 30.1072 38.3503 29.7445L41.3452 26.7381C43.7068 24.3673 44.0033 20.5823 41.7196 18.2897C39.4331 15.9944 35.6565 16.2936 33.2937 18.6655L27.3039 24.6785C24.9424 27.0493 24.6459 30.8343 26.9296 33.1269C27.2908 33.4895 27.8775 33.4906 28.2401 33.1295C28.6027 32.7683 28.6038 32.1815 28.2427 31.8189C26.8049 30.3756 26.8436 27.7668 28.6171 25.9865L34.6067 19.9735Z" fill="#9668DB"/>
<path d="M33.0701 26.8772C32.709 26.5146 32.1222 26.5135 31.7595 26.8746C31.397 27.2358 31.3959 27.8226 31.7571 28.1851C33.1948 29.6286 33.1561 32.2372 31.3827 34.0175L25.393 40.0305C23.6207 41.8097 21.0284 41.8471 19.5933 40.4064C18.1554 38.963 18.1942 36.3543 19.9676 34.5739L22.9625 31.5675C23.3237 31.2048 23.3226 30.6182 22.96 30.2569C22.5974 29.8957 22.0106 29.8968 21.6494 30.2595L18.6545 33.2659C16.2929 35.6368 15.9965 39.4218 18.2802 41.7144C20.5666 44.0097 24.3433 43.7105 26.7061 41.3385L32.6958 35.3255C35.0574 32.9548 35.3539 29.1698 33.0701 26.8772Z" fill="#9668DB"/>
</svg>
