<svg width="47" height="47" viewBox="0 0 47 47" fill="none" xmlns="http://www.w3.org/2000/svg">
<g clip-path="url(#clip0_317_24849)">
<rect width="46.6064" height="46.6064" rx="9.97058" fill="#CC5A1C"/>
<g clip-path="url(#clip1_317_24849)">
<path d="M24.9452 31.4963C24.1613 31.7161 23.2615 31.8427 22.332 31.8427C16.8311 31.8427 12.3658 27.4093 12.3135 21.9213V21.9159C12.3529 16.3946 16.8372 11.9346 22.3638 11.9346C27.8905 11.9346 32.3755 16.3953 32.4142 21.9137V21.9175C32.4142 21.941 32.4142 21.9683 32.4142 21.9956C32.4142 25.1175 30.9344 27.8937 28.6373 29.6609L28.6145 29.6776C29.3385 30.7655 30.0762 31.491 31.1269 31.491C31.136 31.491 31.1459 31.491 31.1565 31.491C32.0367 31.491 32.7561 30.8011 32.8031 29.933V29.9285H34.2784C34.2875 30.0354 34.2928 30.1597 34.2928 30.2856C34.2928 32.7093 32.3278 34.6743 29.9041 34.6743C29.8548 34.6743 29.8055 34.6736 29.7562 34.672H29.7631C27.6221 34.6584 25.7822 33.3832 24.949 31.5524L24.9354 31.519L24.9452 31.4963ZM24.0014 29.6518C23.2144 28.1029 22.2911 26.5374 20.4883 26.5374C20.4776 26.5374 20.4655 26.5374 20.4534 26.5374C20.1039 26.5374 19.7703 26.6102 19.4693 26.7421L19.4853 26.7361L18.8735 25.5147C19.7756 24.796 20.9318 24.3616 22.1902 24.3616C22.2547 24.3616 22.3184 24.3632 22.3813 24.3647H22.3722C22.4184 24.3632 22.4723 24.3624 22.5268 24.3624C24.4449 24.3624 26.1165 25.42 26.9899 26.984L27.0035 27.0097C27.5524 25.6573 27.8708 24.0887 27.8708 22.4459C27.8708 22.2601 27.867 22.0752 27.8587 21.8917L27.8594 21.9175C27.8594 16.6288 26.2075 13.9148 22.3441 13.9148C18.5376 13.9148 16.8902 16.6288 16.8902 21.9175C16.8902 27.178 18.5376 29.8648 22.3441 29.8648C22.3714 29.8656 22.4033 29.8656 22.4351 29.8656C22.9931 29.8656 23.5321 29.7875 24.0431 29.6419L24.0014 29.6518Z" fill="white"/>
</g>
</g>
<defs>
<clipPath id="clip0_317_24849">
<rect width="46.6064" height="46.6064" rx="9.97058" fill="white"/>
</clipPath>
<clipPath id="clip1_317_24849">
<rect width="24.2598" height="24.2598" fill="white" transform="translate(11.1743 11.1729)"/>
</clipPath>
</defs>
</svg>
