<svg width="44" height="44" viewBox="0 0 44 44" fill="none" xmlns="http://www.w3.org/2000/svg">
<rect width="43.6917" height="43.6917" rx="3.64097" fill="#FDF1F2"/>
<g clip-path="url(#clip0_308_12419)">
<path d="M14.2979 10.5H25.6846C26.1041 10.5 26.5071 10.6662 26.8037 10.9629L28.7305 12.8906L31.0322 15.1924C31.3288 15.4889 31.496 15.8912 31.4961 16.3105V31.6104C31.4961 32.4839 30.7876 33.1924 29.9141 33.1924H14.2979C13.4243 33.1924 12.7158 32.4839 12.7158 31.6104V12.082C12.7158 11.2084 13.4243 10.5 14.2979 10.5Z" fill="#FFFEFE" stroke="#C71A03" stroke-width="1.05451"/>
<path d="M31.3986 23.625H12.8143C12.0043 23.625 11.3477 24.2817 11.3477 25.0917V31.7861C11.3477 32.5961 12.0043 33.2528 12.8143 33.2528H31.3986C32.2086 33.2528 32.8653 32.5961 32.8653 31.7861V25.0917C32.8653 24.2816 32.2086 23.625 31.3986 23.625Z" fill="#B41F0B"/>
<path d="M19.7216 27.0715C19.6526 26.9048 19.5606 26.7553 19.4342 26.6289C19.3077 26.5024 19.1524 26.3989 18.9742 26.3299C18.7903 26.2552 18.5832 26.2207 18.3533 26.2207H16.6343V30.659H17.5024V28.986H18.3533C18.5833 28.986 18.7903 28.9515 18.9742 28.8768C19.1524 28.8077 19.3076 28.7043 19.4342 28.5778C19.5606 28.4513 19.6527 28.3076 19.7216 28.1351C19.7848 27.9684 19.8193 27.7902 19.8193 27.6062C19.8192 27.4165 19.7848 27.2383 19.7216 27.0715ZM18.7845 28.0431C18.6695 28.1523 18.5085 28.2098 18.313 28.2098H17.5024V26.991H18.313C18.5085 26.991 18.6695 27.0485 18.7845 27.1634C18.8937 27.2726 18.9511 27.4221 18.9511 27.6061C18.9512 27.7844 18.8937 27.9339 18.7845 28.0431Z" fill="#FFFEFE"/>
<path d="M23.8712 27.9397C23.8655 27.7845 23.8598 27.6465 23.8424 27.52C23.8253 27.3935 23.7965 27.2785 23.7562 27.1693C23.716 27.0658 23.6642 26.9623 23.5952 26.8703C23.44 26.6461 23.2503 26.4794 23.0375 26.3759C22.8191 26.2724 22.5604 26.2207 22.2556 26.2207H20.6575V30.659H22.2557C22.5605 30.659 22.8192 30.6073 23.0376 30.5038C23.2504 30.4003 23.4401 30.2336 23.5953 30.0094C23.6643 29.9174 23.7161 29.8139 23.7563 29.7104C23.7965 29.6012 23.8253 29.4862 23.8425 29.3598C23.8598 29.2333 23.8655 29.0953 23.8713 28.9401C23.877 28.7906 23.877 28.6239 23.877 28.4399C23.8769 28.256 23.8769 28.0892 23.8712 27.9397ZM23.0031 28.8884C23.0031 29.0206 22.9916 29.1241 22.98 29.2161C22.9685 29.3023 22.9513 29.3828 22.9283 29.4403C22.9054 29.5035 22.8708 29.561 22.8306 29.6127C22.6868 29.7967 22.4684 29.8829 22.181 29.8829H21.5199V26.9911H22.181C22.4684 26.9911 22.6869 27.083 22.8306 27.267C22.8709 27.3187 22.9054 27.3705 22.9283 27.4337C22.9513 27.4969 22.9686 27.5717 22.98 27.6637C22.9916 27.7499 23.0031 27.8591 23.0031 27.9856C23.0088 28.1121 23.0088 28.2673 23.0088 28.4398C23.0088 28.6123 23.0088 28.7618 23.0031 28.8884Z" fill="#FFFEFE"/>
<path d="M27.5804 26.9911V26.2207H24.6541V30.659H25.5222V28.8596H27.2757V28.0834H25.5222V26.9911H27.5804Z" fill="#FFFEFE"/>
<path opacity="0.08" d="M32.0231 15.437V33.7192H12.1885V29.4328L21.4607 20.1605L22.0097 19.6116L22.3138 19.3074L22.8208 18.8005L23.4222 18.1991L29.1037 12.5176L32.0231 15.437Z" fill="white"/>
<path d="M31.1233 14.5379C31.4555 14.8701 31.2203 15.438 30.7505 15.438H27.0854C26.7942 15.438 26.5581 15.202 26.5581 14.9108V11.2456C26.5581 10.7758 27.126 10.5406 27.4582 10.8727L31.1233 14.5379Z" fill="#C71A03"/>
</g>
<defs>
<clipPath id="clip0_308_12419">
<rect width="23.7471" height="23.7471" fill="white" transform="translate(9.97192 9.97266)"/>
</clipPath>
</defs>
</svg>
