<svg width="31" height="31" viewBox="0 0 31 31" fill="none" xmlns="http://www.w3.org/2000/svg">
<rect width="30.1523" height="30.1523" rx="3.82874" fill="#E6E3FF"/>
<path d="M10.0415 20.1115H23.2589C23.4259 20.1115 23.586 20.1778 23.704 20.2958C23.822 20.4139 23.8883 20.5739 23.8883 20.7409C23.8883 20.9078 23.822 21.0679 23.704 21.1859C23.586 21.304 23.4259 21.3703 23.2589 21.3703H9.41212C9.24519 21.3703 9.0851 21.304 8.96706 21.1859C8.84903 21.0679 8.78271 20.9078 8.78271 20.7409V6.89405C8.78271 6.72712 8.84903 6.56703 8.96706 6.449C9.0851 6.33096 9.24519 6.26465 9.41212 6.26465C9.57904 6.26465 9.73913 6.33096 9.85717 6.449C9.97521 6.56703 10.0415 6.72712 10.0415 6.89405V20.1115Z" fill="#6D38DE"/>
<path d="M21.3693 9.4126V23.2594C21.3693 23.4264 21.303 23.5864 21.185 23.7045C21.0669 23.8225 20.9068 23.8888 20.7399 23.8888C20.573 23.8888 20.4129 23.8225 20.2948 23.7045C20.1768 23.5864 20.1105 23.4264 20.1105 23.2594V10.042H6.89307C6.72615 10.042 6.56605 9.97569 6.44802 9.85766C6.32998 9.73962 6.26367 9.57953 6.26367 9.4126C6.26367 9.24568 6.32998 9.08559 6.44802 8.96755C6.56605 8.84951 6.72615 8.7832 6.89307 8.7832H20.7399C20.9068 8.7832 21.0669 8.84951 21.185 8.96755C21.303 9.08559 21.3693 9.24568 21.3693 9.4126Z" fill="#6D38DE"/>
</svg>
