<svg width="31" height="31" viewBox="0 0 31 31" fill="none" xmlns="http://www.w3.org/2000/svg">
<g clip-path="url(#clip0_171_8427)">
<path d="M5.53613 0.675537H20.1113C20.6482 0.675537 21.1633 0.888775 21.543 1.26831L24.0107 3.73608L26.9561 6.68237C27.3357 7.06206 27.5498 7.57707 27.5498 8.11401V27.696C27.5498 28.8142 26.6426 29.7214 25.5244 29.7214H5.53613C4.41809 29.7213 3.51172 28.8141 3.51172 27.696V2.69995C3.51185 1.58199 4.41817 0.675666 5.53613 0.675537Z" fill="#FFFEFE" stroke="#1A5FE1" stroke-width="1.34973"/>
<path opacity="0.08" d="M28.2243 6.99551V30.396H2.83691V24.9095L14.705 13.0414L15.4076 12.3388L15.7969 11.9495L16.4458 11.3006L17.2155 10.5309L24.4876 3.25879L28.2243 6.99551Z" fill="white"/>
<path d="M27.0723 5.84385C27.4975 6.26899 27.1963 6.99591 26.5951 6.99591H21.9039C21.5312 6.99591 21.229 6.69376 21.229 6.32105V1.62976C21.229 1.02852 21.9559 0.727422 22.3811 1.15257L27.0723 5.84385Z" fill="#1A5FE1"/>
<rect x="8.23438" y="11.29" width="13.9258" height="1.49658" rx="0.748291" fill="#1A5FE2"/>
<rect x="8.23438" y="15.4492" width="13.9258" height="1.49658" rx="0.748291" fill="#1A5FE2"/>
<rect x="8.23438" y="19.6084" width="13.9258" height="1.49658" rx="0.748291" fill="#1A5FE2"/>
</g>
<defs>
<clipPath id="clip0_171_8427">
<rect width="30.3953" height="30.3953" fill="white"/>
</clipPath>
</defs>
</svg>
