<svg width="18" height="18" viewBox="0 0 18 18" fill="none" xmlns="http://www.w3.org/2000/svg">
<path d="M14.9677 3.35116C16.3081 4.69153 16.7549 6.92548 16.7549 8.71265C16.7549 10.4998 16.3081 12.7338 14.9677 14.0741M12.287 6.03188C12.7338 6.47867 13.1806 7.37227 13.1806 8.71265C13.1806 10.053 12.7338 10.9466 12.287 11.3934M0.67041 7.37227V10.053C0.67041 11.0401 1.1172 11.8402 2.90436 12.287C4.69153 12.7338 6.0319 16.7549 8.71265 16.7549C10.4998 16.7549 10.4998 0.67041 8.71265 0.67041C6.0319 0.67041 4.69153 4.69153 2.90436 5.13832C1.1172 5.58511 0.67041 6.38525 0.67041 7.37227Z" stroke="#2D2EF5" stroke-width="1.34037" stroke-linecap="round" stroke-linejoin="round"/>
</svg>
