<svg width="31" height="31" viewBox="0 0 31 31" fill="none" xmlns="http://www.w3.org/2000/svg">
<rect width="30.1523" height="30.1523" rx="3.82874" fill="#E6E3FF"/>
<g clip-path="url(#clip0_302_4836)">
<path d="M10.1104 7.61621H17.5977C17.8733 7.61634 18.1381 7.72597 18.333 7.9209L19.5996 9.18848L21.1133 10.7012C21.3082 10.8961 21.4179 11.1608 21.418 11.4365V21.4961C21.418 22.0704 20.9523 22.5361 20.3779 22.5361H10.1104C9.53598 22.5361 9.07031 22.0705 9.07031 21.4961V8.65625C9.07031 8.08188 9.53598 7.61621 10.1104 7.61621Z" fill="#FFFEFE" stroke="#6D38DE" stroke-width="0.693322"/>
<path d="M21.354 16.2451H9.13521C8.60263 16.2451 8.1709 16.6769 8.1709 17.2094V21.6109C8.1709 22.1435 8.60263 22.5752 9.1352 22.5752H21.354C21.8866 22.5752 22.3183 22.1435 22.3183 21.6109V17.2094C22.3183 16.6769 21.8866 16.2451 21.354 16.2451Z" fill="#6B37D9"/>
<path d="M13.6773 18.5106C13.632 18.401 13.5715 18.3027 13.4883 18.2195C13.4052 18.1364 13.3031 18.0684 13.1859 18.023C13.065 17.9738 12.9288 17.9512 12.7777 17.9512H11.6475V20.8693H12.2182V19.7693H12.7777C12.9289 19.7693 13.065 19.7466 13.1859 19.6975C13.3031 19.6521 13.4051 19.5841 13.4883 19.5009C13.5715 19.4178 13.632 19.3233 13.6773 19.2099C13.7189 19.1003 13.7416 18.9831 13.7416 18.8621C13.7415 18.7374 13.7189 18.6202 13.6773 18.5106ZM13.0612 19.1494C12.9856 19.2212 12.8797 19.259 12.7512 19.259H12.2182V18.4576H12.7512C12.8797 18.4576 12.9856 18.4954 13.0612 18.571C13.133 18.6428 13.1707 18.7411 13.1707 18.862C13.1708 18.9793 13.133 19.0776 13.0612 19.1494Z" fill="#FFFEFE"/>
<path d="M16.4084 19.0814C16.4046 18.9793 16.4009 18.8886 16.3895 18.8054C16.3782 18.7222 16.3592 18.6467 16.3328 18.5749C16.3063 18.5068 16.2723 18.4388 16.2269 18.3783C16.1249 18.2309 16.0002 18.1213 15.8602 18.0532C15.7166 17.9852 15.5465 17.9512 15.3462 17.9512H14.2954V20.8693H15.3462C15.5466 20.8693 15.7167 20.8353 15.8603 20.7673C16.0002 20.6992 16.1249 20.5896 16.227 20.4422C16.2723 20.3817 16.3064 20.3136 16.3328 20.2456C16.3593 20.1738 16.3782 20.0982 16.3895 20.015C16.4009 19.9319 16.4046 19.8411 16.4084 19.7391C16.4122 19.6408 16.4122 19.5312 16.4122 19.4103C16.4121 19.2893 16.4121 19.1796 16.4084 19.0814ZM15.8376 19.7051C15.8376 19.7921 15.8301 19.8601 15.8224 19.9206C15.8149 19.9773 15.8036 20.0302 15.7884 20.068C15.7734 20.1096 15.7506 20.1474 15.7242 20.1814C15.6297 20.3023 15.4861 20.359 15.2971 20.359H14.8624V18.4577H15.2971C15.4861 18.4577 15.6297 18.5181 15.7242 18.6391C15.7507 18.6731 15.7734 18.7071 15.7884 18.7487C15.8036 18.7903 15.8149 18.8394 15.8224 18.8999C15.8301 18.9566 15.8376 19.0284 15.8376 19.1116C15.8413 19.1947 15.8413 19.2968 15.8413 19.4102C15.8414 19.5236 15.8414 19.6219 15.8376 19.7051Z" fill="#FFFEFE"/>
<path d="M18.8439 18.4577V17.9512H16.9199V20.8693H17.4907V19.6862H18.6436V19.1759H17.4907V18.4577H18.8439Z" fill="#FFFEFE"/>
<path opacity="0.08" d="M21.7645 10.8628V22.8831H8.72363V20.0648L14.82 13.9685L15.1809 13.6076L15.3809 13.4075L15.7142 13.0742L16.1096 12.6788L19.845 8.94336L21.7645 10.8628Z" fill="white"/>
<path d="M21.1734 10.2711C21.3918 10.4895 21.2371 10.8629 20.9283 10.8629H18.5185C18.3271 10.8629 18.1719 10.7077 18.1719 10.5162V8.10645C18.1719 7.79761 18.5453 7.64294 18.7637 7.86132L21.1734 10.2711Z" fill="#6D38DE"/>
</g>
<defs>
<clipPath id="clip0_302_4836">
<rect width="15.6133" height="15.6133" fill="white" transform="translate(7.26953 7.26953)"/>
</clipPath>
</defs>
</svg>
