<svg width="31" height="31" viewBox="0 0 31 31" fill="none" xmlns="http://www.w3.org/2000/svg">
<g clip-path="url(#clip0_124_2656)">
<path d="M5.53613 0.674805H20.1113C20.6482 0.674805 21.1633 0.888042 21.543 1.26758L24.0107 3.73535L26.9561 6.68164C27.3357 7.06132 27.5498 7.57633 27.5498 8.11328V27.6953C27.5498 28.8135 26.6426 29.7207 25.5244 29.7207H5.53613C4.41809 29.7206 3.51172 28.8134 3.51172 27.6953V2.69922C3.51185 1.58126 4.41817 0.674934 5.53613 0.674805Z" fill="#FFFEFE" stroke="#565EDD" stroke-width="1.34973"/>
<path d="M27.4236 17.4746H3.63655C2.59976 17.4746 1.75928 18.3151 1.75928 19.3519V27.9205C1.75928 28.9573 2.59976 29.7978 3.63655 29.7978H27.4236C28.4604 29.7978 29.3009 28.9573 29.3009 27.9205V19.3519C29.3009 18.3151 28.4604 17.4746 27.4236 17.4746Z" fill="#4750DA"/>
<path d="M12.4776 21.8859C12.3892 21.6725 12.2715 21.4812 12.1096 21.3193C11.9477 21.1575 11.749 21.025 11.5209 20.9367C11.2854 20.841 11.0204 20.7969 10.7262 20.7969H8.52588V26.4777H9.63706V24.3363H10.7262C11.0205 24.3363 11.2854 24.2922 11.5209 24.1965C11.749 24.1082 11.9476 23.9758 12.1096 23.8139C12.2715 23.652 12.3893 23.468 12.4776 23.2473C12.5584 23.0339 12.6026 22.8058 12.6026 22.5703C12.6025 22.3274 12.5584 22.0993 12.4776 21.8859ZM11.278 23.1295C11.1308 23.2692 10.9248 23.3428 10.6745 23.3428H9.63706V21.7828H10.6745C10.9248 21.7828 11.1308 21.8564 11.278 22.0035C11.4178 22.1433 11.4913 22.3347 11.4913 22.5701C11.4914 22.7983 11.4178 22.9897 11.278 23.1295Z" fill="#FFFEFE"/>
<path d="M17.7892 22.9971C17.7819 22.7984 17.7746 22.6218 17.7524 22.4599C17.7304 22.2979 17.6935 22.1508 17.642 22.011C17.5906 21.8786 17.5243 21.7461 17.4359 21.6284C17.2373 21.3414 16.9945 21.128 16.7221 20.9955C16.4426 20.8631 16.1114 20.7969 15.7214 20.7969H13.6758V26.4777H15.7215C16.1115 26.4777 16.4427 26.4116 16.7222 26.2791C16.9946 26.1466 17.2374 25.9332 17.436 25.6462C17.5244 25.5285 17.5907 25.396 17.6421 25.2636C17.6936 25.1238 17.7304 24.9766 17.7525 24.8147C17.7747 24.6529 17.7819 24.4762 17.7893 24.2775C17.7966 24.0862 17.7966 23.8728 17.7966 23.6374C17.7965 23.4019 17.7965 23.1884 17.7892 22.9971ZM16.678 24.2114C16.678 24.3806 16.6634 24.5131 16.6485 24.6308C16.6338 24.7412 16.6118 24.8442 16.5824 24.9178C16.553 24.9987 16.5088 25.0723 16.4573 25.1385C16.2733 25.374 15.9937 25.4844 15.6258 25.4844H14.7796V21.7829H15.6258C15.9937 21.7829 16.2734 21.9006 16.4573 22.1361C16.5088 22.2023 16.553 22.2686 16.5824 22.3495C16.6118 22.4304 16.6339 22.5261 16.6485 22.6438C16.6634 22.7542 16.678 22.894 16.678 23.0559C16.6853 23.2178 16.6853 23.4165 16.6853 23.6372C16.6854 23.8581 16.6854 24.0494 16.678 24.2114Z" fill="#FFFEFE"/>
<path d="M22.5361 21.7829V20.7969H18.7905V26.4777H19.9017V24.1746H22.1461V23.1811H19.9017V21.7829H22.5361Z" fill="#FFFEFE"/>
<path opacity="0.08" d="M28.2243 6.99453V30.395H2.83691V24.9085L14.705 13.0405L15.4076 12.3379L15.7969 11.9485L16.4458 11.2996L17.2155 10.5299L24.4876 3.25781L28.2243 6.99453Z" fill="white"/>
<path d="M27.0723 5.84336C27.4975 6.2685 27.1963 6.99542 26.5951 6.99542H21.9039C21.5312 6.99542 21.229 6.69327 21.229 6.32056V1.62928C21.229 1.02804 21.9559 0.726934 22.3811 1.15208L27.0723 5.84336Z" fill="#565EDD"/>
</g>
<defs>
<clipPath id="clip0_124_2656">
<rect width="30.3953" height="30.3953" fill="white"/>
</clipPath>
</defs>
</svg>
